<?xml version="1.0" encoding="utf-8"?>
<!-- Generator: Adobe Illustrator 25.0.1, SVG Export Plug-In . SVG Version: 6.00 Build 0)  -->
<svg version="1.1" id="a14aeead-7a51-49c7-9dde-c662f5733ecb"
	 xmlns="http://www.w3.org/2000/svg" xmlns:xlink="http://www.w3.org/1999/xlink" x="0px" y="0px" viewBox="0 0 782 701.9"
	 style="enable-background:new 0 0 782 701.9;" xml:space="preserve">
<style type="text/css">
	.st0{fill:#112233;}
	.st1{fill:#FFFFFF;}
	.st2{fill:#F2F2F2;}
</style>
<path class="st0" d="M395.6,181.2l-12.4,3.2l-152.3,39.3l-12.4,3.2c-12.5,3.2-20,16-16.8,28.5l53.6,207.9c3.2,12.5,16,20,28.5,16.8
	l0,0l177-45.6l0,0c12.5-3.2,20-16,16.8-28.5L424.1,198C420.9,185.5,408.1,178,395.6,181.2z"/>
<path class="st1" d="M397.3,187.7l-14.6,3.8l-147.8,38.1l-14.6,3.8c-8.9,2.3-14.3,11.4-12,20.3l53.6,207.9
	c2.3,8.9,11.4,14.3,20.3,12l0,0l177-45.6l0,0c8.9-2.3,14.3-11.4,12-20.3l-53.6-207.9C415.3,190.7,406.2,185.4,397.3,187.7z"/>
<path class="st0" d="M386.3,255l-89.5,23.1c-2.1,0.5-4.2-0.7-4.7-2.8c-0.5-2.1,0.7-4.2,2.8-4.7l89.5-23.1c2.1-0.5,4.2,0.7,4.7,2.8
	C389.6,252.3,388.3,254.5,386.3,255z"/>
<path class="st0" d="M405.1,263.7L300,290.8c-2.1,0.5-4.2-0.7-4.7-2.8c-0.5-2.1,0.7-4.2,2.8-4.7c0,0,0,0,0,0l105.1-27.1
	c2.1-0.5,4.2,0.7,4.7,2.8C408.4,261.1,407.2,263.2,405.1,263.7L405.1,263.7z"/>
<path class="st0" d="M401,312l-89.5,23.1c-2.1,0.5-4.2-0.7-4.7-2.8c-0.5-2.1,0.7-4.2,2.8-4.7c0,0,0,0,0,0l89.5-23.1
	c2.1-0.5,4.2,0.7,4.7,2.8C404.3,309.4,403.1,311.5,401,312C401,312,401,312,401,312L401,312z"/>
<path class="st0" d="M419.8,320.8l-105.1,27.1c-2.1,0.5-4.2-0.7-4.7-2.8c-0.5-2.1,0.7-4.2,2.8-4.7c0,0,0,0,0,0l105.1-27.1
	c2.1-0.5,4.2,0.7,4.7,2.8C423.1,318.1,421.9,320.2,419.8,320.8z"/>
<path class="st2" d="M415.7,369.1l-89.5,23.1c-2.1,0.5-4.2-0.7-4.7-2.8c-0.5-2.1,0.7-4.2,2.8-4.7l89.5-23.1c2.1-0.5,4.2,0.7,4.7,2.8
	C419,366.4,417.8,368.5,415.7,369.1z"/>
<path class="st2" d="M434.5,377.8l-105.1,27.1c-2.1,0.5-4.2-0.7-4.7-2.8c-0.5-2.1,0.7-4.2,2.8-4.7c0,0,0,0,0,0l105.1-27.1
	c2.1-0.5,4.2,0.7,4.7,2.8C437.8,375.1,436.6,377.2,434.5,377.8z"/>
<path class="st0" d="M281.4,301.8l-31.7,8.2c-1,0.3-2-0.3-2.3-1.3l-7.3-28.2c-0.3-1,0.3-2,1.3-2.3l31.7-8.2c1-0.3,2,0.3,2.3,1.3
	l7.3,28.2C283,300.5,282.4,301.5,281.4,301.8z"/>
<path class="st0" d="M296.1,358.8l-31.7,8.2c-1,0.3-2-0.3-2.3-1.3l-7.3-28.2c-0.3-1,0.3-2,1.3-2.3l31.7-8.2c1-0.3,2,0.3,2.3,1.3
	l7.3,28.2C297.7,357.5,297.1,358.5,296.1,358.8z"/>
<path class="st0" d="M310.8,415.8l-31.7,8.2c-1,0.3-2-0.3-2.3-1.3l-7.3-28.2c-0.3-1,0.3-2,1.3-2.3l31.7-8.2c1-0.3,2,0.3,2.3,1.3
	l7.3,28.2C312.4,414.6,311.8,415.6,310.8,415.8z"/>
<path class="st0" d="M519.1,233.9H336.3c-12.9,0-23.4,10.5-23.4,23.4V472c0,12.9,10.5,23.4,23.4,23.4h182.9
	c12.9,0,23.4-10.5,23.4-23.4V257.2C542.5,244.3,532,233.9,519.1,233.9z"/>
<path class="st1" d="M519.1,240.6H336.3c-9.2,0-16.6,7.5-16.7,16.7V472c0,9.2,7.5,16.6,16.7,16.7h182.9c9.2,0,16.6-7.5,16.7-16.7
	V257.2C535.8,248.1,528.3,240.6,519.1,240.6z"/>
<circle class="st0" cx="538.3" cy="478.8" r="42.7"/>
<path class="st1" d="M558.8,473.2h-14.8v-14.8c0-3.1-2.5-5.6-5.6-5.6c-3.1,0-5.6,2.5-5.6,5.6v14.8h-14.8c-3.1,0-5.6,2.5-5.6,5.6
	c0,3.1,2.5,5.6,5.6,5.6h14.8v14.8c0,3.1,2.5,5.6,5.6,5.6s5.6-2.5,5.6-5.6c0,0,0,0,0,0v-14.8h14.8c3.1,0,5.6-2.5,5.6-5.6
	C564.3,475.7,561.8,473.2,558.8,473.2L558.8,473.2z"/>
<path class="st0" d="M491.6,358.6h-92.5c-2.2,0-3.9-1.7-3.9-3.9c0-2.2,1.7-3.9,3.9-3.9c0,0,0,0,0,0h92.5c2.2,0,3.9,1.7,3.9,3.9
	C495.5,356.8,493.8,358.6,491.6,358.6z"/>
<path class="st0" d="M507.7,371.7H399.1c-2.2,0-3.9-1.7-3.9-3.9c0-2.2,1.7-3.9,3.9-3.9c0,0,0,0,0,0h108.5c2.2,0,3.9,1.7,3.9,3.9
	C511.6,370,509.8,371.7,507.7,371.7z"/>
<path class="st0" d="M491.6,417.5h-92.5c-2.2,0-3.9-1.7-3.9-3.9s1.7-3.9,3.9-3.9h92.5c2.2,0,3.9,1.7,3.9,3.9
	S493.8,417.5,491.6,417.5z"/>
<path class="st0" d="M507.7,430.6H399.1c-2.2,0-3.9-1.7-3.9-3.9c0-2.2,1.7-3.9,3.9-3.9h108.5c2.2,0,3.9,1.7,3.9,3.9
	C511.6,428.9,509.8,430.6,507.7,430.6z"/>
<path class="st0" d="M378.4,377.7h-32.7c-1,0-1.9-0.8-1.9-1.9v-29.1c0-1,0.8-1.9,1.9-1.9h32.7c1,0,1.9,0.8,1.9,1.9v29.1
	C380.3,376.9,379.5,377.7,378.4,377.7z"/>
<path class="st0" d="M378.4,436.6h-32.7c-1,0-1.9-0.8-1.9-1.9v-29.1c0-1,0.8-1.9,1.9-1.9h32.7c1,0,1.9,0.8,1.9,1.9v29.1
	C380.3,435.7,379.5,436.6,378.4,436.6z"/>
<path class="st0" d="M491.7,293h-68.2c-2.2,0-3.9-1.7-3.9-3.9s1.7-3.9,3.9-3.9h68.2c2.2,0,3.9,1.7,3.9,3.9S493.9,293,491.7,293z"/>
<path class="st0" d="M507.8,306.2h-84.2c-2.2,0-3.9-1.7-3.9-3.9c0-2.2,1.7-3.9,3.9-3.9h84.2c2.2,0,3.9,1.7,3.9,3.9
	C511.7,304.4,509.9,306.2,507.8,306.2L507.8,306.2z"/>
<path class="st0" d="M408.4,322.1h-62.9c-1,0-1.9-0.8-1.9-1.9v-49.1c0-1,0.8-1.9,1.9-1.9h62.9c1,0,1.9,0.8,1.9,1.9v49.1
	C410.3,321.2,409.5,322.1,408.4,322.1z"/>
</svg>
